HIERARCHY
ROOT hip
{
	OFFSET 0.000000 0.000000 0.000000 
	CHANNELS 6 Xposition Yposition Zposition Xrotation Zrotation Yrotation
	JOINT abdomen
	{
		OFFSET 0.000000 3.402643 0.000000 
		CHANNELS 3 Xrotation Zrotation Yrotation
		JOINT chest
		{
			OFFSET 0.000000 8.438565 -0.680529 
			CHANNELS 3 Xrotation Zrotation Yrotation
			JOINT neck
			{
				OFFSET 0.000000 10.207942 -0.272212 
				CHANNELS 3 Xrotation Zrotation Yrotation
				JOINT head
				{
					OFFSET 0.000000 3.130431 0.000000 
					CHANNELS 3 Xrotation Zrotation Yrotation
					End Site
					{
						OFFSET 0.000000 3.130435 0.000000 
					}
				}
			}
			JOINT lCollar
			{
				OFFSET 3.470700 6.669187 -0.816635 
				CHANNELS 3 Yrotation Zrotation Xrotation
				JOINT lShldr
				{
					OFFSET 3.198488 0.000000 0.000000 
					CHANNELS 3 Zrotation Yrotation Xrotation
					JOINT lForeArm
					{
						OFFSET 10.139888 0.000000 0.000000 
						CHANNELS 3 Yrotation Zrotation Xrotation
						JOINT lHand
						{
							OFFSET 8.370511 0.000000 0.000000 
							CHANNELS 3 Zrotation Yrotation Xrotation
							End Site
							{
								OFFSET 4.083176 0.000000 0.000000 
							}
						}
					}
				}
			}
			JOINT rCollar
			{
				OFFSET -3.470700 6.669187 -0.816635 
				CHANNELS 3 Yrotation Zrotation Xrotation
				JOINT rShldr
				{
					OFFSET -3.198488 0.000000 0.000000 
					CHANNELS 3 Zrotation Yrotation Xrotation
					JOINT rForeArm
					{
						OFFSET -10.139888 0.000000 0.000000 
						CHANNELS 3 Yrotation Zrotation Xrotation
						JOINT rHand
						{
							OFFSET -8.370511 0.000000 0.000000 
							CHANNELS 3 Zrotation Yrotation Xrotation
							End Site
							{
								OFFSET -4.083176 0.000000 0.000000 
							}
						}
					}
				}
			}
		}
	}
	JOINT lThigh
	{
		OFFSET 5.308129 -1.633274 1.361059 
		CHANNELS 3 Xrotation Zrotation Yrotation
		JOINT lShin
		{
			OFFSET -2.041588 -20.007561 0.000000 
			CHANNELS 3 Xrotation Zrotation Yrotation
			JOINT lFoot
			{
				OFFSET 0.000000 -19.190928 -1.224953 
				CHANNELS 3 Xrotation Yrotation Zrotation
				End Site
				{
					OFFSET 0.000000 -2.449906 4.627600 
				}
			}
		}
	}
	JOINT rThigh
	{
		OFFSET -5.308129 -1.633274 1.361059 
		CHANNELS 3 Xrotation Zrotation Yrotation
		JOINT rShin
		{
			OFFSET 2.041588 -20.007561 0.000000 
			CHANNELS 3 Xrotation Zrotation Yrotation
			JOINT rFoot
			{
				OFFSET 0.000000 -19.190928 -1.224953 
				CHANNELS 3 Xrotation Yrotation Zrotation
				End Site
				{
					OFFSET 0.000000 -2.449906 4.627600 
				}
			}
		}
	}
}
MOTION
Frames: 10
Frame Time: 0.016667
21.322132 45.011616 74.619247 -0.742411 1.406130 144.630005 -17.167500 4.039990 1.028550 17.276699 4.114370 0.907601 14.526500 -9.670660 9.854910 10.724600 2.439910 5.591670 2.000000 -2.000000 0.000000 -84.117401 5.502860 165.485992 40.205502 -0.319264 0.088312 0.045755 -0.018935 -143.699005 -2.000000 2.000000 0.000000 81.363197 -0.018434 154.110992 -28.701500 0.334767 0.065660 -0.075985 0.060438 -159.050995 1.302507 -4.288290 -5.039721 29.608198 4.791234 1.790624 -12.312955 -13.742012 -7.394162 -24.609211 1.139283 7.329340 21.063023 -1.755776 -2.116909 0.257992 6.114867 0.343222 
22.249483 45.161842 73.449593 -1.211770 2.118670 145.716995 -17.167101 4.308700 1.384410 17.171301 3.529000 1.149200 14.336500 -9.822040 10.261000 10.695000 2.411020 5.792090 2.000000 -2.000000 0.000000 -84.319801 6.069770 161.432007 34.404701 -0.327649 0.077308 0.046468 -0.024192 -145.593994 -2.000000 2.000000 0.000000 80.864304 0.237226 153.291000 -28.193701 0.335344 0.064595 -0.076068 0.060641 -159.128998 -1.391244 -2.693499 -4.536810 36.241684 3.941247 2.254351 -6.341386 -16.747454 -5.914567 -23.174063 2.000445 6.864807 21.722397 -1.838531 -2.115732 -0.494386 5.047429 0.412736 
23.153696 45.356403 72.274300 -1.849870 3.845660 147.513000 -17.017300 4.856070 1.012790 17.182699 3.061100 1.079640 14.684500 -10.568100 10.812500 10.977700 2.292690 6.092530 2.000000 -2.000000 0.000000 -85.496300 6.818160 155.425003 30.361700 -0.332815 0.069164 0.046439 -0.024002 -145.524994 -2.000000 2.000000 0.000000 79.614700 0.998151 153.664001 -27.314800 0.336321 0.062739 -0.075315 0.058763 -158.406006 -5.647374 0.795584 -2.735508 45.034328 3.097803 2.833211 4.779135 -20.690765 -1.919391 -20.784466 3.619154 5.960494 21.316771 -1.864477 -2.080644 -0.210562 4.022204 0.374182 
24.144518 45.534637 71.220795 -3.168580 7.059610 150.098999 -17.052401 5.958130 1.090880 17.018200 2.485490 1.321110 14.098600 -9.592560 10.580800 10.588600 2.557290 5.931290 2.000000 -2.000000 0.000000 -85.121803 6.879520 152.154007 26.660500 -0.337029 0.061405 0.045682 -0.018310 -143.473999 -2.000000 2.000000 0.000000 78.784103 1.096830 153.186005 -26.670200 0.337019 0.061368 -0.074576 0.056849 -157.673996 -11.394023 5.867910 -3.529660 55.778557 2.429604 3.411226 13.314898 -21.553627 1.930771 -17.177896 7.106186 5.284536 18.307476 -1.766778 -1.901042 0.913235 1.039851 0.155813 
24.985369 45.699638 70.104599 -3.562400 10.215000 152.503998 -16.908701 6.677500 1.457410 16.805599 1.364260 1.668400 15.140700 -10.422500 9.714050 11.161400 2.010380 5.654210 2.000000 -2.000000 0.000000 -84.144798 7.015330 151.723999 24.619400 -0.339136 0.057015 0.045146 -0.012812 -141.501999 -2.000000 2.000000 0.000000 78.042503 1.085920 153.723007 -26.621401 0.337071 0.061264 -0.073619 0.054258 -156.686996 -15.848711 10.248943 -4.510317 63.640549 1.761555 3.752002 17.118795 -22.060181 3.953267 -13.168581 10.082494 4.506533 15.637045 -1.691579 -1.710776 1.248421 -1.280662 0.019017 
25.720621 45.873112 68.975830 -2.941810 10.699100 155.216003 -16.589701 6.660570 1.668880 17.079500 1.072240 1.800100 15.390800 -10.270200 9.279400 11.249600 2.038870 5.446140 2.000000 -2.000000 0.000000 -84.317902 6.756800 149.498001 24.092100 -0.339655 0.055868 0.044679 -0.003829 -138.289001 -2.000000 2.000000 0.000000 77.056702 2.012730 154.154999 -25.996401 0.337732 0.059927 -0.072524 0.051107 -155.496002 -19.549217 10.768230 -5.097598 67.780174 1.288306 3.958845 10.748423 -20.352140 1.466182 -11.062404 10.357581 3.462569 15.834260 -1.908598 -1.615258 0.241878 -3.071738 -0.072499 
26.441608 46.000336 67.886925 -2.244640 10.499900 157.990997 -16.373699 6.597970 2.033970 17.196600 1.160110 1.963160 15.470800 -9.817520 8.667960 11.231100 2.194020 5.123620 2.000000 -2.000000 0.000000 -84.377899 6.973980 150.630005 25.410400 -0.338338 0.058725 0.044839 -0.008119 -139.822006 -2.000000 2.000000 0.000000 76.294502 2.658320 153.658005 -26.113600 0.337609 0.060179 -0.061429 0.046967 -153.942993 -22.868750 10.495173 -4.735469 68.190948 1.083400 4.041200 5.550092 -18.006002 -0.343908 -9.925565 10.180390 2.401872 17.341940 -2.204427 -1.602154 -1.069635 -5.074922 -0.187701 
27.005997 46.046471 66.807701 -1.981990 9.789180 160.895004 -16.443800 6.332440 2.490990 17.079700 0.896784 2.152550 16.826799 -9.544550 7.870030 11.789100 2.315840 4.781220 2.000000 -2.000000 0.000000 -84.760399 7.348000 152.026001 27.851900 -0.335727 0.063932 0.045382 -0.015482 -142.459000 -2.000000 2.000000 0.000000 75.689201 2.697050 153.815002 -27.080400 0.336576 0.062241 -0.071510 0.057752 -154.324005 -26.179165 9.741200 -3.398591 65.708572 1.074076 4.032001 1.878214 -15.920839 -1.437089 -9.670924 9.464583 0.888230 19.570036 -2.504604 -1.653720 -3.464388 -6.377850 -0.456941 
27.583752 45.888794 65.708580 -2.079020 10.969500 163.658997 -16.502600 6.639040 2.781170 16.962799 0.370364 2.369320 17.129400 -9.286740 6.682020 11.838400 2.373520 4.185700 2.000000 -2.000000 0.000000 -85.309402 7.898630 153.792007 30.908501 -0.332150 0.070286 0.046395 -0.023705 -145.417999 -2.000000 2.000000 0.000000 74.841400 2.605260 155.621002 -28.467100 0.335034 0.065169 -0.073481 0.053872 -156.541000 -28.858547 11.005321 -2.124194 61.448315 1.237226 3.938184 -2.528813 -14.841990 -2.509033 -8.784827 10.810313 -0.846769 21.019913 -2.656951 -1.713395 -5.583848 -7.745742 -0.828048 
28.054672 45.841499 64.576324 -2.310990 11.367900 166.108002 -16.481100 6.538530 3.096980 17.001900 -0.204684 2.551780 17.324499 -9.007750 5.707080 11.926600 2.401850 3.685550 2.000000 -2.000000 0.000000 -85.701698 8.077750 155.345001 34.160500 -0.327977 0.076827 0.047172 -0.028427 -147.126999 -2.000000 2.000000 0.000000 74.723297 3.564510 154.598007 -29.189800 0.334203 0.066680 -0.071567 0.057934 -154.391998 -30.622114 11.020871 -0.663945 54.331799 1.547700 3.678242 -5.616928 -13.266765 -3.175466 -8.139386 11.514545 -1.376475 22.182186 -2.816427 -1.743135 -8.067164 -9.395926 -1.368122 
